<?xml version="1.0" encoding="UTF-8" standalone="no"?>
<!DOCTYPE svg PUBLIC "-//W3C//DTD SVG 1.1//EN"
 "http://www.w3.org/Graphics/SVG/1.1/DTD/svg11.dtd">
<!-- Generated by graphviz version 2.43.0 (0)
 -->
<!-- Title: cheatah::ndarray::sum Pages: 1 -->
<svg width="330pt" height="124pt"
 viewBox="0.00 0.00 330.00 123.50" xmlns="http://www.w3.org/2000/svg" xmlns:xlink="http://www.w3.org/1999/xlink">
<g id="graph0" class="graph" transform="scale(1 1) rotate(0) translate(4 119.5)">
<title>cheatah::ndarray::sum</title>
<!-- Node1 -->
<g id="Node000001" class="node">
<title>Node1</title>
<g id="a_Node000001"><a xlink:title="Sum of all elements.">
<polygon fill="#999999" stroke="#666666" points="125,-72.5 0,-72.5 0,-53.5 125,-53.5 125,-72.5"/>
<text text-anchor="middle" x="62.5" y="-60.5" font-family="Helvetica,sans-Serif" font-size="10.00">cheatah::ndarray::sum</text>
</a>
</g>
</g>
<!-- Node2 -->
<g id="Node000002" class="node">
<title>Node2</title>
<g id="a_Node000002"><a xlink:href="classcheatah_1_1ndarray_1_1NDArray.html#a53e11f7cbec52980a12486d279adc348" target="_top" xlink:title="Read one element by multi&#45;index (via strides).">
<polygon fill="white" stroke="#666666" points="322,-115.5 161,-115.5 161,-96.5 322,-96.5 322,-115.5"/>
<text text-anchor="middle" x="241.5" y="-103.5" font-family="Helvetica,sans-Serif" font-size="10.00">cheatah::ndarray::NDArray::at</text>
</a>
</g>
</g>
<!-- Node1&#45;&gt;Node2 -->
<g id="edge1_Node000001_Node000002" class="edge">
<title>Node1&#45;&gt;Node2</title>
<g id="a_edge1_Node000001_Node000002"><a xlink:title=" ">
<path fill="none" stroke="#d6ad73" d="M101.92,-72.52C119.86,-76.95 141.52,-82.27 161,-87 170.52,-89.31 180.68,-91.75 190.46,-94.09"/>
<polygon fill="#d6ad73" stroke="#d6ad73" points="189.91,-97.56 200.45,-96.48 191.54,-90.75 189.91,-97.56"/>
</a>
</g>
</g>
<!-- Node3 -->
<g id="Node000003" class="node">
<title>Node3</title>
<g id="a_Node000003"><a xlink:href="classcheatah_1_1ndarray_1_1NDArray.html#a09704c044d8abf1eadf1e47e203a18ec" target="_top" xlink:title="The number of dimensions (rank).">
<polygon fill="white" stroke="#666666" points="314.5,-78 168.5,-78 168.5,-48 314.5,-48 314.5,-78"/>
<text text-anchor="start" x="176.5" y="-66" font-family="Helvetica,sans-Serif" font-size="10.00">cheatah::ndarray::NDArray</text>
<text text-anchor="middle" x="241.5" y="-55" font-family="Helvetica,sans-Serif" font-size="10.00">::ndim</text>
</a>
</g>
</g>
<!-- Node1&#45;&gt;Node3 -->
<g id="edge2_Node000001_Node000003" class="edge">
<title>Node1&#45;&gt;Node3</title>
<g id="a_edge2_Node000001_Node000003"><a xlink:title=" ">
<path fill="none" stroke="#d6ad73" d="M125.41,-63C136.02,-63 147.19,-63 158.23,-63"/>
<polygon fill="#d6ad73" stroke="#d6ad73" points="158.31,-66.5 168.31,-63 158.31,-59.5 158.31,-66.5"/>
</a>
</g>
</g>
<!-- Node4 -->
<g id="Node000004" class="node">
<title>Node4</title>
<g id="a_Node000004"><a xlink:href="classcheatah_1_1ndarray_1_1NDArray.html#aad1a34c9ab0e62679bd257c907abb463" target="_top" xlink:title="The shape (dimensions).">
<polygon fill="white" stroke="#666666" points="314.5,-30 168.5,-30 168.5,0 314.5,0 314.5,-30"/>
<text text-anchor="start" x="176.5" y="-18" font-family="Helvetica,sans-Serif" font-size="10.00">cheatah::ndarray::NDArray</text>
<text text-anchor="middle" x="241.5" y="-7" font-family="Helvetica,sans-Serif" font-size="10.00">::shape</text>
</a>
</g>
</g>
<!-- Node1&#45;&gt;Node4 -->
<g id="edge3_Node000001_Node000004" class="edge">
<title>Node1&#45;&gt;Node4</title>
<g id="a_edge3_Node000001_Node000004"><a xlink:title=" ">
<path fill="none" stroke="#d6ad73" d="M98.89,-53.4C120.72,-47.48 149.39,-39.71 175.22,-32.7"/>
<polygon fill="#d6ad73" stroke="#d6ad73" points="176.22,-36.06 184.96,-30.06 174.39,-29.3 176.22,-36.06"/>
</a>
</g>
</g>
</g>
</svg>
