<?xml version="1.0" encoding="UTF-8" standalone="no"?>
<!DOCTYPE svg PUBLIC "-//W3C//DTD SVG 1.1//EN"
 "http://www.w3.org/Graphics/SVG/1.1/DTD/svg11.dtd">
<!-- Generated by graphviz version 2.43.0 (0)
 -->
<!-- Title: cheatah::math::degrees Pages: 1 -->
<svg width="305pt" height="27pt"
 viewBox="0.00 0.00 305.00 27.00" xmlns="http://www.w3.org/2000/svg" xmlns:xlink="http://www.w3.org/1999/xlink">
<g id="graph0" class="graph" transform="scale(1 1) rotate(0) translate(4 23)">
<title>cheatah::math::degrees</title>
<!-- Node1 -->
<g id="Node000001" class="node">
<title>Node1</title>
<g id="a_Node000001"><a xlink:title="Radians → degrees.">
<polygon fill="#999999" stroke="#666666" points="132,-19 0,-19 0,0 132,0 132,-19"/>
<text text-anchor="middle" x="66" y="-7" font-family="Helvetica,sans-Serif" font-size="10.00">cheatah::math::degrees</text>
</a>
</g>
</g>
<!-- Node2 -->
<g id="Node000002" class="node">
<title>Node2</title>
<g id="a_Node000002"><a xlink:href="namespacecheatah_1_1math.html#a215f044460829a2f7c9b1b5cb90fea3e" target="_top" xlink:title="Degrees → radians.">
<polygon fill="white" stroke="#666666" points="297,-19 168,-19 168,0 297,0 297,-19"/>
<text text-anchor="middle" x="232.5" y="-7" font-family="Helvetica,sans-Serif" font-size="10.00">cheatah::math::radians</text>
</a>
</g>
</g>
<!-- Node1&#45;&gt;Node2 -->
<g id="edge1_Node000001_Node000002" class="edge">
<title>Node1&#45;&gt;Node2</title>
<g id="a_edge1_Node000001_Node000002"><a xlink:title=" ">
<path fill="none" stroke="#63b8ff" d="M132.01,-2.88C140.38,-2.75 148.99,-2.72 157.49,-2.78"/>
<polygon fill="#63b8ff" stroke="#63b8ff" points="157.72,-6.28 167.76,-2.9 157.81,0.72 157.72,-6.28"/>
</a>
</g>
</g>
<!-- Node2&#45;&gt;Node1 -->
<g id="edge2_Node000002_Node000001" class="edge">
<title>Node2&#45;&gt;Node1</title>
<g id="a_edge2_Node000002_Node000001"><a xlink:title=" ">
<path fill="none" stroke="#63b8ff" d="M167.76,-16.1C159.33,-16.24 150.63,-16.28 142.04,-16.23"/>
<polygon fill="#63b8ff" stroke="#63b8ff" points="142.05,-12.73 132.01,-16.12 141.98,-19.73 142.05,-12.73"/>
</a>
</g>
</g>
</g>
</svg>
