<?xml version="1.0" encoding="UTF-8" standalone="no"?>
<!DOCTYPE svg PUBLIC "-//W3C//DTD SVG 1.1//EN"
 "http://www.w3.org/Graphics/SVG/1.1/DTD/svg11.dtd">
<!-- Generated by graphviz version 2.43.0 (0)
 -->
<!-- Title: cheatah::ndarray::to_string Pages: 1 -->
<svg width="319pt" height="76pt"
 viewBox="0.00 0.00 319.00 75.50" xmlns="http://www.w3.org/2000/svg" xmlns:xlink="http://www.w3.org/1999/xlink">
<g id="graph0" class="graph" transform="scale(1 1) rotate(0) translate(4 71.5)">
<title>cheatah::ndarray::to_string</title>
<!-- Node1 -->
<g id="Node000001" class="node">
<title>Node1</title>
<g id="a_Node000001"><a xlink:title="Render as a nested&#45;bracket string, e.g.">
<polygon fill="#999999" stroke="#666666" points="114,-51 0,-51 0,-21 114,-21 114,-51"/>
<text text-anchor="start" x="8" y="-39" font-family="Helvetica,sans-Serif" font-size="10.00">cheatah::ndarray::to</text>
<text text-anchor="middle" x="57" y="-28" font-family="Helvetica,sans-Serif" font-size="10.00">_string</text>
</a>
</g>
</g>
<!-- Node2 -->
<g id="Node000002" class="node">
<title>Node2</title>
<g id="a_Node000002"><a xlink:href="classcheatah_1_1ndarray_1_1NDArray.html#a53e11f7cbec52980a12486d279adc348" target="_top" xlink:title="Read one element by multi&#45;index (via strides).">
<polygon fill="white" stroke="#666666" points="311,-67.5 150,-67.5 150,-48.5 311,-48.5 311,-67.5"/>
<text text-anchor="middle" x="230.5" y="-55.5" font-family="Helvetica,sans-Serif" font-size="10.00">cheatah::ndarray::NDArray::at</text>
</a>
</g>
</g>
<!-- Node1&#45;&gt;Node2 -->
<g id="edge1_Node000001_Node000002" class="edge">
<title>Node1&#45;&gt;Node2</title>
<g id="a_edge1_Node000001_Node000002"><a xlink:title=" ">
<path fill="none" stroke="#d6ad73" d="M114.16,-43.2C124.15,-44.49 134.75,-45.85 145.33,-47.2"/>
<polygon fill="#d6ad73" stroke="#d6ad73" points="145.07,-50.7 155.43,-48.5 145.96,-43.75 145.07,-50.7"/>
</a>
</g>
</g>
<!-- Node3 -->
<g id="Node000003" class="node">
<title>Node3</title>
<g id="a_Node000003"><a xlink:href="classcheatah_1_1ndarray_1_1NDArray.html#a09704c044d8abf1eadf1e47e203a18ec" target="_top" xlink:title="The number of dimensions (rank).">
<polygon fill="white" stroke="#666666" points="303.5,-30 157.5,-30 157.5,0 303.5,0 303.5,-30"/>
<text text-anchor="start" x="165.5" y="-18" font-family="Helvetica,sans-Serif" font-size="10.00">cheatah::ndarray::NDArray</text>
<text text-anchor="middle" x="230.5" y="-7" font-family="Helvetica,sans-Serif" font-size="10.00">::ndim</text>
</a>
</g>
</g>
<!-- Node1&#45;&gt;Node3 -->
<g id="edge2_Node000001_Node000003" class="edge">
<title>Node1&#45;&gt;Node3</title>
<g id="a_edge2_Node000001_Node000003"><a xlink:title=" ">
<path fill="none" stroke="#d6ad73" d="M114.16,-29.12C124.7,-27.83 135.93,-26.46 147.08,-25.09"/>
<polygon fill="#d6ad73" stroke="#d6ad73" points="147.78,-28.53 157.28,-23.84 146.93,-21.59 147.78,-28.53"/>
</a>
</g>
</g>
</g>
</svg>
