<?xml version="1.0" encoding="UTF-8" standalone="no"?>
<!DOCTYPE svg PUBLIC "-//W3C//DTD SVG 1.1//EN"
 "http://www.w3.org/Graphics/SVG/1.1/DTD/svg11.dtd">
<!-- Generated by graphviz version 2.43.0 (0)
 -->
<!-- Title: cheatah::io::str Pages: 1 -->
<svg width="232pt" height="64pt"
 viewBox="0.00 0.00 232.00 64.00" xmlns="http://www.w3.org/2000/svg" xmlns:xlink="http://www.w3.org/1999/xlink">
<g id="graph0" class="graph" transform="scale(1 1) rotate(0) translate(4 60)">
<title>cheatah::io::str</title>
<!-- Node1 -->
<g id="Node000001" class="node">
<title>Node1</title>
<g id="a_Node000001"><a xlink:title="str() for a std::string — identity overload.">
<polygon fill="#999999" stroke="#666666" points="224,-37 135,-37 135,-18 224,-18 224,-37"/>
<text text-anchor="middle" x="179.5" y="-25" font-family="Helvetica,sans-Serif" font-size="10.00">cheatah::io::str</text>
</a>
</g>
</g>
<!-- Node2 -->
<g id="Node000002" class="node">
<title>Node2</title>
<g id="a_Node000002"><a xlink:href="namespacecheatah_1_1io.html#a797b0d86b7c7aec8fbb68b9e53b53c6a" target="_top" xlink:title="Python print(*args): space&#45;separated, newline&#45;terminated, to stdout (sep=&#39; &#39;, end=&#39; &#39;).">
<polygon fill="white" stroke="#666666" points="99,-56 0,-56 0,-37 99,-37 99,-56"/>
<text text-anchor="middle" x="49.5" y="-44" font-family="Helvetica,sans-Serif" font-size="10.00">cheatah::io::print</text>
</a>
</g>
</g>
<!-- Node1&#45;&gt;Node2 -->
<g id="edge1_Node000001_Node000002" class="edge">
<title>Node1&#45;&gt;Node2</title>
<g id="a_edge1_Node000001_Node000002"><a xlink:title=" ">
<path fill="none" stroke="#63b8ff" d="M124.68,-35.49C116.25,-36.74 107.58,-38.03 99.27,-39.26"/>
<polygon fill="#63b8ff" stroke="#63b8ff" points="125.43,-38.92 134.81,-33.99 124.4,-31.99 125.43,-38.92"/>
</a>
</g>
</g>
<!-- Node3 -->
<g id="Node000003" class="node">
<title>Node3</title>
<g id="a_Node000003"><a xlink:href="namespacecheatah_1_1io.html#aea5137e3c9c915c88d0f0886d6266572" target="_top" xlink:title="Python repr() for a generic value — same as str() for non&#45;strings.">
<polygon fill="white" stroke="#666666" points="97.5,-19 1.5,-19 1.5,0 97.5,0 97.5,-19"/>
<text text-anchor="middle" x="49.5" y="-7" font-family="Helvetica,sans-Serif" font-size="10.00">cheatah::io::repr</text>
</a>
</g>
</g>
<!-- Node1&#45;&gt;Node3 -->
<g id="edge2_Node000001_Node000003" class="edge">
<title>Node1&#45;&gt;Node3</title>
<g id="a_edge2_Node000001_Node000003"><a xlink:title=" ">
<path fill="none" stroke="#63b8ff" d="M124.87,-19.96C115.93,-18.7 106.71,-17.4 97.94,-16.17"/>
<polygon fill="#63b8ff" stroke="#63b8ff" points="124.42,-23.43 134.81,-21.36 125.39,-16.5 124.42,-23.43"/>
</a>
</g>
</g>
</g>
</svg>
