<?xml version="1.0" encoding="UTF-8" standalone="no"?>
<!DOCTYPE svg PUBLIC "-//W3C//DTD SVG 1.1//EN"
 "http://www.w3.org/Graphics/SVG/1.1/DTD/svg11.dtd">
<!-- Generated by graphviz version 2.43.0 (0)
 -->
<!-- Title: stdlib/os/os.cpp Pages: 1 -->
<svg width="454pt" height="137pt"
 viewBox="0.00 0.00 454.00 137.00" xmlns="http://www.w3.org/2000/svg" xmlns:xlink="http://www.w3.org/1999/xlink">
<g id="graph0" class="graph" transform="scale(1 1) rotate(0) translate(4 133)">
<title>stdlib/os/os.cpp</title>
<!-- Node1 -->
<g id="Node000001" class="node">
<title>Node1</title>
<g id="a_Node000001"><a xlink:title=" ">
<polygon fill="#999999" stroke="#666666" points="360,-129 268,-129 268,-110 360,-110 360,-129"/>
<text text-anchor="middle" x="314" y="-117" font-family="Helvetica,sans-Serif" font-size="10.00">stdlib/os/os.cpp</text>
</a>
</g>
</g>
<!-- Node2 -->
<g id="Node000002" class="node">
<title>Node2</title>
<g id="a_Node000002"><a xlink:href="os_8hpp.html" target="_top" xlink:title="cheatah os — Python&#45;like operating&#45;system interface over std::filesystem, plus the os....">
<polygon fill="white" stroke="#666666" points="238.5,-74 189.5,-74 189.5,-55 238.5,-55 238.5,-74"/>
<text text-anchor="middle" x="214" y="-62" font-family="Helvetica,sans-Serif" font-size="10.00">os.hpp</text>
</a>
</g>
</g>
<!-- Node1&#45;&gt;Node2 -->
<g id="edge1_Node000001_Node000002" class="edge">
<title>Node1&#45;&gt;Node2</title>
<g id="a_edge1_Node000001_Node000002"><a xlink:title=" ">
<path fill="none" stroke="#d6ad73" d="M297.93,-109.98C282.14,-101.61 257.78,-88.7 239.37,-78.95"/>
<polygon fill="#d6ad73" stroke="#d6ad73" points="240.83,-75.76 230.36,-74.17 237.56,-81.95 240.83,-75.76"/>
</a>
</g>
</g>
<!-- Node9 -->
<g id="Node000009" class="node">
<title>Node9</title>
<g id="a_Node000009"><a xlink:title=" ">
<polygon fill="#e0e0e0" stroke="#999999" points="305.5,-74 256.5,-74 256.5,-55 305.5,-55 305.5,-74"/>
<text text-anchor="middle" x="281" y="-62" font-family="Helvetica,sans-Serif" font-size="10.00">cstdlib</text>
</a>
</g>
</g>
<!-- Node1&#45;&gt;Node9 -->
<g id="edge8_Node000001_Node000009" class="edge">
<title>Node1&#45;&gt;Node9</title>
<g id="a_edge8_Node000001_Node000009"><a xlink:title=" ">
<path fill="none" stroke="#d6ad73" d="M308.55,-109.75C303.99,-102.42 297.33,-91.73 291.71,-82.7"/>
<polygon fill="#d6ad73" stroke="#d6ad73" points="294.6,-80.73 286.35,-74.09 288.66,-84.43 294.6,-80.73"/>
</a>
</g>
</g>
<!-- Node10 -->
<g id="Node000010" class="node">
<title>Node10</title>
<g id="a_Node000010"><a xlink:title=" ">
<polygon fill="#e0e0e0" stroke="#999999" points="372,-74 324,-74 324,-55 372,-55 372,-74"/>
<text text-anchor="middle" x="348" y="-62" font-family="Helvetica,sans-Serif" font-size="10.00">thread</text>
</a>
</g>
</g>
<!-- Node1&#45;&gt;Node10 -->
<g id="edge9_Node000001_Node000010" class="edge">
<title>Node1&#45;&gt;Node10</title>
<g id="a_edge9_Node000001_Node000010"><a xlink:title=" ">
<path fill="none" stroke="#d6ad73" d="M319.61,-109.75C324.32,-102.42 331.17,-91.73 336.97,-82.7"/>
<polygon fill="#d6ad73" stroke="#d6ad73" points="340.04,-84.4 342.49,-74.09 334.14,-80.62 340.04,-84.4"/>
</a>
</g>
</g>
<!-- Node11 -->
<g id="Node000011" class="node">
<title>Node11</title>
<g id="a_Node000011"><a xlink:title=" ">
<polygon fill="#e0e0e0" stroke="#999999" points="446,-74 390,-74 390,-55 446,-55 446,-74"/>
<text text-anchor="middle" x="418" y="-62" font-family="Helvetica,sans-Serif" font-size="10.00">unistd.h</text>
</a>
</g>
</g>
<!-- Node1&#45;&gt;Node11 -->
<g id="edge10_Node000001_Node000011" class="edge">
<title>Node1&#45;&gt;Node11</title>
<g id="a_edge10_Node000001_Node000011"><a xlink:title=" ">
<path fill="none" stroke="#d6ad73" d="M330.71,-109.98C347.21,-101.57 372.7,-88.59 391.88,-78.81"/>
<polygon fill="#d6ad73" stroke="#d6ad73" points="393.67,-81.83 400.99,-74.17 390.49,-75.59 393.67,-81.83"/>
</a>
</g>
</g>
<!-- Node3 -->
<g id="Node000003" class="node">
<title>Node3</title>
<g id="a_Node000003"><a xlink:title=" ">
<polygon fill="#e0e0e0" stroke="#999999" points="50,-19 0,-19 0,0 50,0 50,-19"/>
<text text-anchor="middle" x="25" y="-7" font-family="Helvetica,sans-Serif" font-size="10.00">cstdint</text>
</a>
</g>
</g>
<!-- Node2&#45;&gt;Node3 -->
<g id="edge2_Node000002_Node000003" class="edge">
<title>Node2&#45;&gt;Node3</title>
<g id="a_edge2_Node000002_Node000003"><a xlink:title=" ">
<path fill="none" stroke="#d6ad73" d="M189.29,-56.57C156.27,-47.31 97.57,-30.85 60.01,-20.32"/>
<polygon fill="#d6ad73" stroke="#d6ad73" points="60.59,-16.85 50.02,-17.51 58.7,-23.59 60.59,-16.85"/>
</a>
</g>
</g>
<!-- Node4 -->
<g id="Node000004" class="node">
<title>Node4</title>
<g id="a_Node000004"><a xlink:title=" ">
<polygon fill="#e0e0e0" stroke="#999999" points="136,-19 68,-19 68,0 136,0 136,-19"/>
<text text-anchor="middle" x="102" y="-7" font-family="Helvetica,sans-Serif" font-size="10.00">filesystem</text>
</a>
</g>
</g>
<!-- Node2&#45;&gt;Node4 -->
<g id="edge3_Node000002_Node000004" class="edge">
<title>Node2&#45;&gt;Node4</title>
<g id="a_edge3_Node000002_Node000004"><a xlink:title=" ">
<path fill="none" stroke="#d6ad73" d="M196.01,-54.98C178.07,-46.5 150.28,-33.35 129.57,-23.54"/>
<polygon fill="#d6ad73" stroke="#d6ad73" points="130.86,-20.28 120.32,-19.17 127.86,-26.61 130.86,-20.28"/>
</a>
</g>
</g>
<!-- Node5 -->
<g id="Node000005" class="node">
<title>Node5</title>
<g id="a_Node000005"><a xlink:title=" ">
<polygon fill="#e0e0e0" stroke="#999999" points="198,-19 154,-19 154,0 198,0 198,-19"/>
<text text-anchor="middle" x="176" y="-7" font-family="Helvetica,sans-Serif" font-size="10.00">string</text>
</a>
</g>
</g>
<!-- Node2&#45;&gt;Node5 -->
<g id="edge4_Node000002_Node000005" class="edge">
<title>Node2&#45;&gt;Node5</title>
<g id="a_edge4_Node000002_Node000005"><a xlink:title=" ">
<path fill="none" stroke="#d6ad73" d="M207.73,-54.75C202.41,-47.34 194.64,-36.5 188.12,-27.41"/>
<polygon fill="#d6ad73" stroke="#d6ad73" points="190.83,-25.18 182.16,-19.09 185.14,-29.26 190.83,-25.18"/>
</a>
</g>
</g>
<!-- Node6 -->
<g id="Node000006" class="node">
<title>Node6</title>
<g id="a_Node000006"><a xlink:title=" ">
<polygon fill="#e0e0e0" stroke="#999999" points="289.5,-19 216.5,-19 216.5,0 289.5,0 289.5,-19"/>
<text text-anchor="middle" x="253" y="-7" font-family="Helvetica,sans-Serif" font-size="10.00">string_view</text>
</a>
</g>
</g>
<!-- Node2&#45;&gt;Node6 -->
<g id="edge5_Node000002_Node000006" class="edge">
<title>Node2&#45;&gt;Node6</title>
<g id="a_edge5_Node000002_Node000006"><a xlink:title=" ">
<path fill="none" stroke="#d6ad73" d="M220.44,-54.75C225.89,-47.34 233.86,-36.5 240.56,-27.41"/>
<polygon fill="#d6ad73" stroke="#d6ad73" points="243.57,-29.22 246.68,-19.09 237.93,-25.07 243.57,-29.22"/>
</a>
</g>
</g>
<!-- Node7 -->
<g id="Node000007" class="node">
<title>Node7</title>
<g id="a_Node000007"><a xlink:title=" ">
<polygon fill="#e0e0e0" stroke="#999999" points="352.5,-19 307.5,-19 307.5,0 352.5,0 352.5,-19"/>
<text text-anchor="middle" x="330" y="-7" font-family="Helvetica,sans-Serif" font-size="10.00">utility</text>
</a>
</g>
</g>
<!-- Node2&#45;&gt;Node7 -->
<g id="edge6_Node000002_Node000007" class="edge">
<title>Node2&#45;&gt;Node7</title>
<g id="a_edge6_Node000002_Node000007"><a xlink:title=" ">
<path fill="none" stroke="#d6ad73" d="M232.64,-54.98C251.3,-46.46 280.25,-33.23 301.74,-23.41"/>
<polygon fill="#d6ad73" stroke="#d6ad73" points="303.38,-26.51 311.02,-19.17 300.47,-20.14 303.38,-26.51"/>
</a>
</g>
</g>
<!-- Node8 -->
<g id="Node000008" class="node">
<title>Node8</title>
<g id="a_Node000008"><a xlink:title=" ">
<polygon fill="#e0e0e0" stroke="#999999" points="417.5,-19 370.5,-19 370.5,0 417.5,0 417.5,-19"/>
<text text-anchor="middle" x="394" y="-7" font-family="Helvetica,sans-Serif" font-size="10.00">vector</text>
</a>
</g>
</g>
<!-- Node2&#45;&gt;Node8 -->
<g id="edge7_Node000002_Node000008" class="edge">
<title>Node2&#45;&gt;Node8</title>
<g id="a_edge7_Node000002_Node000008"><a xlink:title=" ">
<path fill="none" stroke="#d6ad73" d="M238.65,-56.24C270.2,-46.95 324.99,-30.82 360.36,-20.41"/>
<polygon fill="#d6ad73" stroke="#d6ad73" points="361.62,-23.68 370.22,-17.5 359.64,-16.97 361.62,-23.68"/>
</a>
</g>
</g>
</g>
</svg>
